<svg xmlns="http://www.w3.org/2000/svg" xmlns:xlink="http://www.w3.org/1999/xlink" width="500" zoomAndPan="magnify" viewBox="0 0 375 374.999991" height="500" preserveAspectRatio="xMidYMid meet" version="1.0"><defs><clipPath id="id1"><path d="M 20.117188 70 L 366.308594 70 L 366.308594 347.566406 L 20.117188 347.566406 Z M 20.117188 70 " clip-rule="nonzero"/></clipPath><clipPath id="id2"><path d="M 143 28.816406 L 185 28.816406 L 185 99 L 143 99 Z M 143 28.816406 " clip-rule="nonzero"/></clipPath></defs><g clip-path="url(#id1)"><path fill="rgb(13.729858%, 12.159729%, 12.548828%)" d="M 254.613281 166.214844 C 254.613281 171.757812 250.082031 176.300781 244.515625 176.300781 L 81.78125 176.300781 C 76.230469 176.300781 71.679688 171.757812 71.679688 166.214844 C 71.679688 160.675781 76.230469 156.132812 81.78125 156.132812 L 244.515625 156.132812 C 250.082031 156.132812 254.613281 160.675781 254.613281 166.214844 Z M 235.011719 322.011719 C 228.707031 322.664062 222.597656 316.613281 222.5625 309.789062 C 223.421875 303.460938 226.828125 299.023438 233.996094 298.496094 C 240.667969 298.003906 246.710938 303.582031 246.359375 310.140625 C 245.972656 317.066406 241.96875 321.3125 235.011719 322.011719 Z M 70.292969 213.863281 C 64.742188 213.863281 60.195312 209.320312 60.195312 203.78125 C 60.195312 198.238281 64.742188 193.695312 70.292969 193.695312 L 233.046875 193.695312 C 238.59375 193.695312 243.144531 198.238281 243.144531 203.78125 C 243.144531 209.320312 238.59375 213.863281 233.046875 213.863281 Z M 86.03125 322.03125 C 79.074219 321.398438 75.054688 317.136719 74.597656 310.246094 C 74.175781 303.707031 80.179688 298.214844 86.871094 298.445312 C 93.96875 299.144531 97.867188 303.25 98.324219 310.140625 C 98.726562 316.472656 92.351562 322.609375 86.03125 322.03125 Z M 352.789062 70.5 C 339.964844 70.238281 327.144531 70.621094 314.324219 70.34375 C 306.441406 70.167969 301.714844 73.65625 299.097656 80.863281 C 295.832031 89.878906 291.878906 98.664062 289.070312 107.820312 C 286.996094 114.535156 283.308594 116.289062 276.511719 116.269531 C 198.289062 116.042969 36.046875 115.992188 33.167969 116.21875 C 23.15625 116.972656 17.992188 123.757812 20.941406 133.371094 C 32.253906 170.355469 43.898438 207.234375 55.382812 244.148438 C 58.246094 253.320312 65.324219 254.636719 73.648438 254.621094 C 122.699219 254.515625 227.6875 254.566406 231.308594 254.566406 C 227.828125 272.59375 227.828125 272.59375 211.375 272.59375 C 170.328125 272.59375 129.285156 272.542969 88.261719 272.628906 C 72.929688 272.664062 60.84375 278.960938 53.488281 292.605469 C 46.707031 305.160156 47.304688 317.890625 54.769531 330.046875 C 63.445312 344.164062 80.761719 350.738281 96.515625 346.160156 C 112.671875 341.480469 123.703125 327.308594 123.878906 310.773438 C 123.914062 307.003906 123.4375 303.230469 123.175781 298.863281 C 148.027344 298.863281 172.558594 298.863281 196.832031 298.863281 C 197.445312 306.300781 197.078125 313.699219 198.832031 320.574219 C 202.839844 336.21875 216.746094 346.828125 232.414062 347.460938 C 249.046875 348.125 263.621094 338.777344 269.488281 323.714844 C 275.230469 308.894531 271.472656 291.710938 258.738281 282.046875 C 252.417969 277.257812 252.59375 273.382812 255.085938 266.964844 C 276.144531 212.722656 297.007812 158.429688 317.574219 104.011719 C 319.996094 97.613281 323.035156 95.035156 329.921875 95.59375 C 337.558594 96.226562 345.304688 95.839844 352.996094 95.699219 C 360.953125 95.542969 365.625 91.316406 366.257812 83.441406 C 366.855469 76.113281 361.234375 70.675781 352.789062 70.5 " fill-opacity="1" fill-rule="nonzero"/></g><g clip-path="url(#id2)"><path fill="rgb(13.729858%, 12.159729%, 12.548828%)" d="M 184.433594 79.058594 L 176.039062 87.703125 L 166.605469 97.453125 C 165.519531 98.578125 163.339844 98.578125 162.269531 97.453125 L 152.835938 87.703125 L 144.441406 79.058594 C 143.109375 77.671875 144.390625 75.726562 146.621094 75.726562 L 152.417969 75.726562 L 152.417969 30.902344 C 152.417969 29.761719 153.628906 28.832031 155.121094 28.832031 L 173.738281 28.832031 C 175.246094 28.832031 176.460938 29.761719 176.460938 30.902344 L 176.460938 75.726562 L 182.253906 75.726562 C 184.484375 75.726562 185.765625 77.671875 184.433594 79.058594 " fill-opacity="1" fill-rule="nonzero"/></g></svg>