<svg xmlns="http://www.w3.org/2000/svg" xmlns:xlink="http://www.w3.org/1999/xlink" width="200" zoomAndPan="magnify" viewBox="0 0 150 74.999997" height="100" preserveAspectRatio="xMidYMid meet" version="1.0"><defs><g><g id="id1"/></g><clipPath id="id2"><path d="M 13 17 L 57 17 L 57 61 L 13 61 Z M 13 17 " clip-rule="nonzero"/></clipPath><clipPath id="id3"><path d="M 8.566406 25.128906 L 48.074219 11.953125 L 61.523438 52.28125 L 22.019531 65.457031 Z M 8.566406 25.128906 " clip-rule="nonzero"/></clipPath><clipPath id="id4"><path d="M 8.566406 25.128906 L 48.074219 11.953125 L 61.523438 52.28125 L 22.019531 65.457031 Z M 8.566406 25.128906 " clip-rule="nonzero"/></clipPath><clipPath id="id5"><path d="M 8.566406 25.128906 L 48.074219 11.953125 L 61.523438 52.28125 L 22.019531 65.457031 Z M 8.566406 25.128906 " clip-rule="nonzero"/></clipPath><clipPath id="id6"><path d="M 14 16 L 59 16 L 59 60 L 14 60 Z M 14 16 " clip-rule="nonzero"/></clipPath><clipPath id="id7"><path d="M 10.386719 24.1875 L 50.230469 12.074219 L 62.597656 52.75 L 22.75 64.863281 Z M 10.386719 24.1875 " clip-rule="nonzero"/></clipPath><clipPath id="id8"><path d="M 10.386719 24.1875 L 50.230469 12.074219 L 62.597656 52.75 L 22.75 64.863281 Z M 10.386719 24.1875 " clip-rule="nonzero"/></clipPath></defs><g clip-path="url(#id2)"><g clip-path="url(#id3)"><g clip-path="url(#id4)"><g clip-path="url(#id5)"><path fill="rgb(0%, 0%, 0%)" d="M 50.675781 35.664062 C 50.542969 34.996094 50.382812 34.324219 50.164062 33.664062 C 49.945312 33 49.664062 32.371094 49.371094 31.753906 L 52.527344 27.015625 C 52.808594 26.585938 52.742188 26.007812 52.339844 25.652344 L 45.992188 20.046875 C 45.597656 19.699219 45.011719 19.695312 44.617188 20.023438 L 40.273438 23.714844 C 38.96875 23.269531 37.605469 22.976562 36.207031 22.875 L 33.679688 17.8125 C 33.429688 17.371094 32.894531 17.140625 32.390625 17.308594 L 24.328125 19.996094 C 23.824219 20.164062 23.535156 20.671875 23.609375 21.171875 L 24.625 26.738281 C 23.566406 27.660156 22.648438 28.699219 21.878906 29.847656 L 16.1875 29.507812 C 15.675781 29.488281 15.210938 29.832031 15.101562 30.347656 L 13.386719 38.640625 C 13.28125 39.15625 13.570312 39.660156 14.058594 39.84375 L 19.417969 41.746094 C 19.550781 42.414062 19.707031 43.085938 19.929688 43.746094 C 20.148438 44.410156 20.425781 45.039062 20.722656 45.65625 L 17.574219 50.390625 C 17.292969 50.820312 17.363281 51.398438 17.761719 51.757812 L 24.109375 57.359375 C 24.507812 57.707031 25.089844 57.714844 25.484375 57.382812 L 29.832031 53.691406 C 31.132812 54.136719 32.496094 54.429688 33.894531 54.53125 L 36.425781 59.59375 C 36.660156 60.039062 37.199219 60.269531 37.703125 60.101562 L 45.765625 57.414062 C 46.269531 57.246094 46.558594 56.738281 46.480469 56.238281 L 45.464844 50.671875 C 46.523438 49.75 47.441406 48.710938 48.214844 47.5625 L 53.90625 47.902344 C 54.414062 47.921875 54.882812 47.578125 54.992188 47.0625 L 56.703125 38.769531 C 56.8125 38.253906 56.523438 37.75 56.035156 37.566406 Z M 37.386719 45.722656 C 33.488281 47.023438 29.285156 44.9375 27.992188 41.058594 C 26.699219 37.175781 28.804688 32.988281 32.707031 31.6875 C 36.605469 30.386719 40.808594 32.472656 42.101562 36.351562 C 43.394531 40.234375 41.289062 44.421875 37.386719 45.722656 Z M 37.386719 45.722656 " fill-opacity="1" fill-rule="nonzero"/></g></g></g></g><g clip-path="url(#id6)"><g clip-path="url(#id7)"><g clip-path="url(#id8)"><path fill="rgb(100%, 18.03894%, 0%)" d="M 52.195312 35.847656 C 52.082031 35.175781 51.941406 34.5 51.738281 33.832031 C 51.535156 33.164062 51.273438 32.527344 50.996094 31.902344 L 54.277344 27.25 C 54.574219 26.828125 54.519531 26.25 54.128906 25.882812 L 47.933594 20.109375 C 47.546875 19.75 46.960938 19.730469 46.5625 20.050781 L 42.117188 23.621094 C 40.828125 23.140625 39.472656 22.8125 38.074219 22.675781 L 35.683594 17.546875 C 35.449219 17.101562 34.917969 16.851562 34.410156 17.007812 L 26.277344 19.480469 C 25.769531 19.632812 25.464844 20.132812 25.527344 20.632812 L 26.394531 26.226562 C 25.3125 27.117188 24.367188 28.136719 23.566406 29.261719 L 17.886719 28.769531 C 17.375 28.734375 16.898438 29.070312 16.777344 29.582031 L 14.84375 37.824219 C 14.722656 38.335938 15 38.847656 15.480469 39.046875 L 20.789062 41.089844 C 20.902344 41.761719 21.042969 42.4375 21.246094 43.101562 C 21.449219 43.769531 21.707031 44.410156 21.988281 45.03125 L 18.714844 49.683594 C 18.421875 50.105469 18.476562 50.683594 18.863281 51.050781 L 25.058594 56.824219 C 25.445312 57.183594 26.03125 57.203125 26.433594 56.882812 L 30.875 53.308594 C 32.167969 53.789062 33.519531 54.121094 34.917969 54.257812 L 37.308594 59.386719 C 37.535156 59.835938 38.066406 60.082031 38.574219 59.929688 L 46.707031 57.457031 C 47.214844 57.304688 47.519531 56.800781 47.453125 56.300781 L 46.585938 50.710938 C 47.671875 49.816406 48.617188 48.800781 49.417969 47.671875 L 55.097656 48.167969 C 55.605469 48.199219 56.082031 47.867188 56.207031 47.355469 L 58.140625 39.113281 C 58.261719 38.597656 57.984375 38.085938 57.503906 37.890625 Z M 38.644531 45.546875 C 34.710938 46.742188 30.566406 44.542969 29.375 40.632812 C 28.1875 36.71875 30.40625 32.585938 34.339844 31.390625 C 38.273438 30.191406 42.417969 32.390625 43.605469 36.304688 C 44.796875 40.21875 42.578125 44.351562 38.644531 45.546875 Z M 38.644531 45.546875 " fill-opacity="1" fill-rule="nonzero"/></g></g></g><path fill="rgb(92.549133%, 92.939758%, 85.488892%)" d="M 139.371094 60.480469 L 38.484375 60.480469 C 36.84375 60.480469 35.511719 59.144531 35.511719 57.507812 L 35.511719 37.160156 C 35.511719 35.523438 36.84375 34.1875 38.484375 34.1875 L 139.371094 34.1875 C 141.007812 34.1875 142.34375 35.523438 142.34375 37.160156 L 142.34375 57.507812 C 142.34375 59.144531 141.007812 60.480469 139.371094 60.480469 " fill-opacity="1" fill-rule="nonzero"/><path fill="rgb(10.5896%, 9.01947%, 9.01947%)" d="M 138.753906 60.328125 L 39.308594 60.328125 C 37.734375 60.328125 36.453125 59.046875 36.453125 57.472656 L 36.453125 37.886719 C 36.453125 36.316406 37.734375 35.035156 39.308594 35.035156 L 138.753906 35.035156 C 140.328125 35.035156 141.609375 36.316406 141.609375 37.886719 L 141.609375 57.472656 C 141.609375 59.046875 140.328125 60.328125 138.753906 60.328125 " fill-opacity="1" fill-rule="nonzero"/><g fill="rgb(92.549133%, 92.939758%, 85.488892%)" fill-opacity="1"><g transform="translate(42.747985, 53.777115)"><g><path d="M 0.546875 -12.421875 L 3.921875 -12.421875 C 4.828125 -12.421875 5.484375 -12.195312 5.890625 -11.75 C 6.304688 -11.3125 6.515625 -10.59375 6.515625 -9.59375 L 6.515625 -9.046875 C 6.515625 -7.859375 6.085938 -7.148438 5.234375 -6.921875 C 5.753906 -6.785156 6.117188 -6.46875 6.328125 -5.96875 C 6.546875 -5.476562 6.65625 -4.828125 6.65625 -4.015625 C 6.65625 -2.703125 6.457031 -1.703125 6.0625 -1.015625 C 5.664062 -0.335938 4.953125 0 3.921875 0 L 0.546875 0 Z M 3.484375 -7.75 C 3.703125 -7.75 3.847656 -7.828125 3.921875 -7.984375 C 3.992188 -8.148438 4.03125 -8.378906 4.03125 -8.671875 L 4.03125 -9.90625 C 4.03125 -10.3125 3.851562 -10.515625 3.5 -10.515625 L 2.984375 -10.515625 L 2.984375 -7.75 Z M 3.21875 -2.1875 C 3.875 -2.1875 4.203125 -2.492188 4.203125 -3.109375 L 4.203125 -4.65625 C 4.203125 -5.03125 4.144531 -5.3125 4.03125 -5.5 C 3.914062 -5.695312 3.71875 -5.796875 3.4375 -5.796875 L 2.984375 -5.796875 L 2.984375 -2.203125 Z M 3.21875 -2.1875 "/></g></g></g><g fill="rgb(92.549133%, 92.939758%, 85.488892%)" fill-opacity="1"><g transform="translate(50.867508, 53.777115)"><g><path d="M 0.4375 0 L 0.4375 -12.421875 L 2.828125 -12.421875 L 2.828125 0 Z M 0.4375 0 "/></g></g></g><g fill="rgb(92.549133%, 92.939758%, 85.488892%)" fill-opacity="1"><g transform="translate(55.339913, 53.777115)"><g><path d="M 0.546875 0 L 0.546875 -12.421875 L 3.015625 -12.421875 L 3.015625 -7.453125 L 4.171875 -12.421875 L 6.671875 -12.421875 L 5.28125 -6.75 L 6.953125 0 L 4.390625 0 L 3.03125 -6.015625 L 3.03125 0 Z M 0.546875 0 "/></g></g></g><g fill="rgb(92.549133%, 92.939758%, 85.488892%)" fill-opacity="1"><g transform="translate(63.358121, 53.777115)"><g><path d="M 0.546875 0 L 0.546875 -12.421875 L 5.53125 -12.421875 L 5.53125 -10.03125 L 3.078125 -10.03125 L 3.078125 -7.609375 L 5.421875 -7.609375 L 5.421875 -5.265625 L 3.078125 -5.265625 L 3.078125 -2.421875 L 5.6875 -2.421875 L 5.6875 0 Z M 0.546875 0 "/></g></g></g><g fill="rgb(92.549133%, 92.939758%, 85.488892%)" fill-opacity="1"><g transform="translate(70.507974, 53.777115)"><g><path d="M 3.5 0.109375 C 2.375 0.109375 1.554688 -0.164062 1.046875 -0.71875 C 0.546875 -1.28125 0.296875 -2.179688 0.296875 -3.421875 L 0.296875 -4.640625 L 2.75 -4.640625 L 2.75 -3.09375 C 2.75 -2.476562 2.945312 -2.171875 3.34375 -2.171875 C 3.5625 -2.171875 3.710938 -2.234375 3.796875 -2.359375 C 3.890625 -2.492188 3.9375 -2.71875 3.9375 -3.03125 C 3.9375 -3.425781 3.882812 -3.753906 3.78125 -4.015625 C 3.6875 -4.285156 3.566406 -4.507812 3.421875 -4.6875 C 3.273438 -4.875 3.007812 -5.15625 2.625 -5.53125 L 1.546875 -6.59375 C 0.710938 -7.40625 0.296875 -8.300781 0.296875 -9.28125 C 0.296875 -10.34375 0.539062 -11.148438 1.03125 -11.703125 C 1.519531 -12.265625 2.234375 -12.546875 3.171875 -12.546875 C 4.285156 -12.546875 5.085938 -12.25 5.578125 -11.65625 C 6.078125 -11.0625 6.328125 -10.132812 6.328125 -8.875 L 3.796875 -8.875 L 3.78125 -9.71875 C 3.78125 -9.882812 3.734375 -10.015625 3.640625 -10.109375 C 3.546875 -10.210938 3.414062 -10.265625 3.25 -10.265625 C 3.0625 -10.265625 2.914062 -10.207031 2.8125 -10.09375 C 2.71875 -9.988281 2.671875 -9.847656 2.671875 -9.671875 C 2.671875 -9.265625 2.90625 -8.84375 3.375 -8.40625 L 4.8125 -7.015625 C 5.15625 -6.691406 5.4375 -6.378906 5.65625 -6.078125 C 5.875 -5.785156 6.050781 -5.4375 6.1875 -5.03125 C 6.320312 -4.632812 6.390625 -4.160156 6.390625 -3.609375 C 6.390625 -2.390625 6.164062 -1.460938 5.71875 -0.828125 C 5.269531 -0.203125 4.53125 0.109375 3.5 0.109375 Z M 3.5 0.109375 "/></g></g></g><g fill="rgb(92.549133%, 92.939758%, 85.488892%)" fill-opacity="1"><g transform="translate(78.366983, 53.777115)"><g><path d="M 0.546875 0 L 0.546875 -12.421875 L 4.34375 -12.421875 L 5.375 -4.84375 L 6.421875 -12.421875 L 10.25 -12.421875 L 10.25 0 L 7.96875 0 L 7.96875 -8.953125 L 6.546875 0 L 4.3125 0 L 2.796875 -8.953125 L 2.796875 0 Z M 0.546875 0 "/></g></g></g><g fill="rgb(92.549133%, 92.939758%, 85.488892%)" fill-opacity="1"><g transform="translate(90.350706, 53.777115)"><g><path d="M 0.21875 0 L 1.421875 -12.421875 L 5.625 -12.421875 L 6.8125 0 L 4.453125 0 L 4.28125 -2.015625 L 2.78125 -2.015625 L 2.640625 0 Z M 2.96875 -4 L 4.09375 -4 L 3.546875 -10.3125 L 3.421875 -10.3125 Z M 2.96875 -4 "/></g></g></g><g fill="rgb(92.549133%, 92.939758%, 85.488892%)" fill-opacity="1"><g transform="translate(98.557063, 53.777115)"><g><path d="M 3.5 0.109375 C 2.375 0.109375 1.554688 -0.164062 1.046875 -0.71875 C 0.546875 -1.28125 0.296875 -2.179688 0.296875 -3.421875 L 0.296875 -4.640625 L 2.75 -4.640625 L 2.75 -3.09375 C 2.75 -2.476562 2.945312 -2.171875 3.34375 -2.171875 C 3.5625 -2.171875 3.710938 -2.234375 3.796875 -2.359375 C 3.890625 -2.492188 3.9375 -2.71875 3.9375 -3.03125 C 3.9375 -3.425781 3.882812 -3.753906 3.78125 -4.015625 C 3.6875 -4.285156 3.566406 -4.507812 3.421875 -4.6875 C 3.273438 -4.875 3.007812 -5.15625 2.625 -5.53125 L 1.546875 -6.59375 C 0.710938 -7.40625 0.296875 -8.300781 0.296875 -9.28125 C 0.296875 -10.34375 0.539062 -11.148438 1.03125 -11.703125 C 1.519531 -12.265625 2.234375 -12.546875 3.171875 -12.546875 C 4.285156 -12.546875 5.085938 -12.25 5.578125 -11.65625 C 6.078125 -11.0625 6.328125 -10.132812 6.328125 -8.875 L 3.796875 -8.875 L 3.78125 -9.71875 C 3.78125 -9.882812 3.734375 -10.015625 3.640625 -10.109375 C 3.546875 -10.210938 3.414062 -10.265625 3.25 -10.265625 C 3.0625 -10.265625 2.914062 -10.207031 2.8125 -10.09375 C 2.71875 -9.988281 2.671875 -9.847656 2.671875 -9.671875 C 2.671875 -9.265625 2.90625 -8.84375 3.375 -8.40625 L 4.8125 -7.015625 C 5.15625 -6.691406 5.4375 -6.378906 5.65625 -6.078125 C 5.875 -5.785156 6.050781 -5.4375 6.1875 -5.03125 C 6.320312 -4.632812 6.390625 -4.160156 6.390625 -3.609375 C 6.390625 -2.390625 6.164062 -1.460938 5.71875 -0.828125 C 5.269531 -0.203125 4.53125 0.109375 3.5 0.109375 Z M 3.5 0.109375 "/></g></g></g><g fill="rgb(92.549133%, 92.939758%, 85.488892%)" fill-opacity="1"><g transform="translate(106.416075, 53.777115)"><g><path d="M 1.625 0 L 1.625 -10.046875 L 0.140625 -10.046875 L 0.140625 -12.421875 L 5.578125 -12.421875 L 5.578125 -10.046875 L 4.109375 -10.046875 L 4.109375 0 Z M 1.625 0 "/></g></g></g><g fill="rgb(92.549133%, 92.939758%, 85.488892%)" fill-opacity="1"><g transform="translate(113.334371, 53.777115)"><g><path d="M 0.546875 0 L 0.546875 -12.421875 L 5.53125 -12.421875 L 5.53125 -10.03125 L 3.078125 -10.03125 L 3.078125 -7.609375 L 5.421875 -7.609375 L 5.421875 -5.265625 L 3.078125 -5.265625 L 3.078125 -2.421875 L 5.6875 -2.421875 L 5.6875 0 Z M 0.546875 0 "/></g></g></g><g fill="rgb(92.549133%, 92.939758%, 85.488892%)" fill-opacity="1"><g transform="translate(120.484227, 53.777115)"><g><path d="M 0.546875 -12.421875 L 4.375 -12.421875 C 4.976562 -12.421875 5.445312 -12.285156 5.78125 -12.015625 C 6.113281 -11.742188 6.335938 -11.359375 6.453125 -10.859375 C 6.566406 -10.359375 6.625 -9.722656 6.625 -8.953125 C 6.625 -8.253906 6.53125 -7.707031 6.34375 -7.3125 C 6.164062 -6.914062 5.847656 -6.640625 5.390625 -6.484375 C 5.773438 -6.398438 6.050781 -6.207031 6.21875 -5.90625 C 6.382812 -5.613281 6.46875 -5.210938 6.46875 -4.703125 L 6.4375 0 L 4.015625 0 L 4.015625 -4.859375 C 4.015625 -5.203125 3.945312 -5.421875 3.8125 -5.515625 C 3.675781 -5.617188 3.425781 -5.671875 3.0625 -5.671875 L 3.0625 0 L 0.546875 0 Z M 3.671875 -7.828125 C 4.023438 -7.828125 4.203125 -8.203125 4.203125 -8.953125 C 4.203125 -9.285156 4.1875 -9.53125 4.15625 -9.6875 C 4.125 -9.851562 4.066406 -9.96875 3.984375 -10.03125 C 3.910156 -10.09375 3.800781 -10.125 3.65625 -10.125 L 3.078125 -10.125 L 3.078125 -7.828125 Z M 3.671875 -7.828125 "/></g></g></g><g fill="rgb(92.549133%, 92.939758%, 85.488892%)" fill-opacity="1"><g transform="translate(128.57481, 53.777115)"><g><path d="M 3.5 0.109375 C 2.375 0.109375 1.554688 -0.164062 1.046875 -0.71875 C 0.546875 -1.28125 0.296875 -2.179688 0.296875 -3.421875 L 0.296875 -4.640625 L 2.75 -4.640625 L 2.75 -3.09375 C 2.75 -2.476562 2.945312 -2.171875 3.34375 -2.171875 C 3.5625 -2.171875 3.710938 -2.234375 3.796875 -2.359375 C 3.890625 -2.492188 3.9375 -2.71875 3.9375 -3.03125 C 3.9375 -3.425781 3.882812 -3.753906 3.78125 -4.015625 C 3.6875 -4.285156 3.566406 -4.507812 3.421875 -4.6875 C 3.273438 -4.875 3.007812 -5.15625 2.625 -5.53125 L 1.546875 -6.59375 C 0.710938 -7.40625 0.296875 -8.300781 0.296875 -9.28125 C 0.296875 -10.34375 0.539062 -11.148438 1.03125 -11.703125 C 1.519531 -12.265625 2.234375 -12.546875 3.171875 -12.546875 C 4.285156 -12.546875 5.085938 -12.25 5.578125 -11.65625 C 6.078125 -11.0625 6.328125 -10.132812 6.328125 -8.875 L 3.796875 -8.875 L 3.78125 -9.71875 C 3.78125 -9.882812 3.734375 -10.015625 3.640625 -10.109375 C 3.546875 -10.210938 3.414062 -10.265625 3.25 -10.265625 C 3.0625 -10.265625 2.914062 -10.207031 2.8125 -10.09375 C 2.71875 -9.988281 2.671875 -9.847656 2.671875 -9.671875 C 2.671875 -9.265625 2.90625 -8.84375 3.375 -8.40625 L 4.8125 -7.015625 C 5.15625 -6.691406 5.4375 -6.378906 5.65625 -6.078125 C 5.875 -5.785156 6.050781 -5.4375 6.1875 -5.03125 C 6.320312 -4.632812 6.390625 -4.160156 6.390625 -3.609375 C 6.390625 -2.390625 6.164062 -1.460938 5.71875 -0.828125 C 5.269531 -0.203125 4.53125 0.109375 3.5 0.109375 Z M 3.5 0.109375 "/></g></g></g></svg>